<?xml version="1.0" encoding="utf-8"?>
<!-- Generator: Adobe Illustrator 16.0.4, SVG Export Plug-In . SVG Version: 6.00 Build 0)  -->
<!DOCTYPE svg PUBLIC "-//W3C//DTD SVG 1.1//EN" "http://www.w3.org/Graphics/SVG/1.1/DTD/svg11.dtd">
<svg version="1.1" id="Layer_1" xmlns="http://www.w3.org/2000/svg" xmlns:xlink="http://www.w3.org/1999/xlink" x="0px" y="0px"
	 width="792px" height="612px" viewBox="0 0 792 612" enable-background="new 0 0 792 612" xml:space="preserve">
<g>
	<path fill="#D24A27" d="M224.045,66.984c0,0,126.933-4.881,154.598,161.107c0,0,45.567,229.457-123.678,286.414h219.691
		c0,0,209.928,0,252.239-196.909c0,0-91.672,29.298-131.815-117.169c0,0-28.752-163.269-187.145-193.655
		C407.936,6.772,277.747-11.128,224.045,66.984z"/>
	<path fill="#D24A27" d="M178.479,107.668c0,0,98.182,22.643,81.368,183.89c0,0-21.155,105.777-122.051,107.404
		c0,0-48.82,6.511-86.25-52.074c0,0,17.901,122.051,117.169,144.834c0,0,150.25,22.783,180.635-136.698
		c0,0,30.92-201.791-107.405-255.493C241.945,99.532,204.517,84.885,178.479,107.668z"/>
	<path fill="#D24A27" d="M121.897,138.378c0,0,61.464,22.179,55.769,108.384c0,0-10.579,58.629-74.859,62.43
		c0,0-28.415,4.59-51.223-29.031c0,0,12.422,71.011,70.771,82.723c0,0,82.588,14.919,103.325-82.755
		c0,0,14.823-118.376-66.842-147.523C158.837,132.606,136.733,124.654,121.897,138.378z"/>
	<path fill="#D24A27" d="M51.546,162.998c-21.67,19.579-25.58,53.753-0.928,81.075c24.652,27.31,62.208,33.583,83.897,14.017
		c21.677-19.572,19.28-57.581-5.365-84.896C104.492,145.879,73.242,143.438,51.546,162.998z"/>
</g>
<text transform="matrix(1 0 0 1 33.6655 586.1484)" font-family="'BriemScriptStd-Regular'" font-size="78.1127">Just Keep Swimming</text>
</svg>
